<svg width="18" height="20" viewBox="0 0 18 20" fill="none" xmlns="http://www.w3.org/2000/svg">
<path d="M9 7.9011C10.1261 7.9011 11.039 8.81399 11.039 9.9401C11.039 11.0662 10.1261 11.9791 9 11.9791C7.8739 11.9791 6.96101 11.0662 6.96101 9.9401C6.96101 8.81399 7.8739 7.9011 9 7.9011Z" stroke="#686B6E" stroke-width="1.5" stroke-linecap="round" stroke-linejoin="round"/>
<path d="M3.80195 4.58457C2.84725 4.03338 1.62648 4.36048 1.07528 5.31518L1.03273 5.38889C0.481323 6.34396 0.80855 7.56519 1.76361 8.11659L2.01114 8.2595C2.59492 8.59655 2.88302 9.266 2.88302 9.9401C2.88302 10.6142 2.59493 11.2836 2.01114 11.6207L1.76361 11.7636C0.808552 12.315 0.481323 13.5362 1.03273 14.4913L1.07528 14.565C1.62648 15.5197 2.84725 15.8468 3.80195 15.2956L4.05081 15.1519C4.63455 14.8149 5.35357 14.8979 5.93672 15.236C6.51968 15.5739 6.96101 16.1595 6.96101 16.8333V17.1201C6.96101 18.2222 7.8544 19.1156 8.95644 19.1156H9.04356C10.1456 19.1156 11.039 18.2222 11.039 17.1201V16.8333C11.039 16.1595 11.4803 15.5739 12.0633 15.236C12.6464 14.8979 13.3655 14.8149 13.9492 15.1519L14.1981 15.2956C15.1528 15.8468 16.3735 15.5197 16.9247 14.565L16.9673 14.4913C17.5187 13.5363 17.1915 12.315 16.2364 11.7636L15.9889 11.6207C15.4051 11.2836 15.117 10.6142 15.117 9.9401C15.117 9.266 15.4051 8.59655 15.9889 8.2595L16.2364 8.11659C17.1915 7.56518 17.5187 6.34394 16.9673 5.38887L16.9247 5.31518C16.3735 4.36048 15.1528 4.03337 14.1981 4.58457L13.9492 4.72825C13.3655 5.06527 12.6464 4.98227 12.0633 4.64423C11.4803 4.30631 11.039 3.72068 11.039 3.04685V2.76006C11.039 1.65801 10.1456 0.764623 9.04356 0.764623L8.95644 0.764623C7.8544 0.764623 6.96101 1.65801 6.96101 2.76006V3.04685C6.96101 3.72067 6.51968 4.30631 5.93672 4.64423C5.35357 4.98227 4.63455 5.06527 4.05081 4.72825L3.80195 4.58457Z" stroke="#686B6E" stroke-width="1.5" stroke-linecap="round" stroke-linejoin="round"/>
</svg>
