<svg width="17" height="17" viewBox="0 0 17 17" fill="none" xmlns="http://www.w3.org/2000/svg">
<path d="M8.5 16.2273H11.5101C12.0566 16.2273 12.5807 16.0102 12.9672 15.6237L15.6237 12.9672C16.0102 12.5807 16.2273 12.0566 16.2273 11.5101V8.5V5.48989C16.2273 4.94339 16.0102 4.41926 15.6237 4.03283L12.9672 1.37627C12.5807 0.989827 12.0566 0.772727 11.5101 0.772727H8.5H5.48989C4.94339 0.772727 4.41926 0.989826 4.03283 1.37626L1.37627 4.03283C0.989827 4.41926 0.772727 4.94339 0.772727 5.48989V8.5V11.5101C0.772727 12.0566 0.989826 12.5807 1.37626 12.9672L4.03283 15.6237C4.41926 16.0102 4.94339 16.2273 5.48989 16.2273H8.5Z" stroke="#82DBF7" stroke-width="1.5" stroke-linecap="round"/>
</svg>
